<svg width="130" height="105" viewBox="0 0 130 105" fill="none" xmlns="http://www.w3.org/2000/svg">
<path fill-rule="evenodd" clip-rule="evenodd" d="M130 0H0V99.8676H62.0266V105H66.54V99.8676H89.6538V105H94.1671V99.8676H130V0ZM90.0641 93.9256H102.818C102.799 93.9031 102.779 93.8805 102.759 93.8578C101.391 92.2617 100.327 90.4814 99.5676 88.517C98.8382 86.5218 98.4735 84.4807 98.4735 82.3934C98.4735 80.214 98.8683 78.1421 99.6588 76.1777C100.449 74.1825 101.543 72.4177 102.941 70.8829C104.339 69.3175 105.98 68.0897 107.865 67.1995C108.426 66.9298 109 66.6996 109.586 66.5089H104.396V33.8191H109.532C108.941 33.6284 108.369 33.3982 107.817 33.1285C105.934 32.2076 104.307 30.9645 102.939 29.3991C101.572 27.803 100.509 26.0226 99.7481 24.0582C99.0187 22.063 98.654 20.0219 98.654 17.9346C98.654 15.7553 99.0497 13.6834 99.8393 11.719C100.63 9.72379 101.724 7.95889 103.122 6.42415C103.269 6.25972 103.418 6.099 103.571 5.94202H78.8155V33.8191H91.9916V38.3312H74.3481V47.4936H83.8307C87.4171 47.4936 90.1069 48.353 91.9004 50.0719C93.693 51.7601 94.5902 54.0009 94.5902 56.7941C94.5902 58.6664 94.1945 60.3393 93.4049 61.8126C92.6444 63.2553 91.4901 64.4064 89.9401 65.2658C89.3452 65.5902 88.6874 65.8511 87.9668 66.0485H90.0641V93.9256ZM69.2421 66.0485V33.8191H73.6639V19.8684H57.343V33.8191H58.5042V38.3773H41.8185V47.6777H56.2703V51.9596H41.8185V61.9508H58.9145V66.5089H49.8125L60.3654 93.9256H64.7646C65.1283 93.7567 65.4617 93.5039 65.765 93.1672C66.4032 92.4922 66.9351 91.4176 67.3606 89.9443C67.8165 88.4709 68.166 86.5372 68.4091 84.143C68.6827 81.7181 68.8802 78.7561 69.0018 75.2569L69.2297 66.0485H69.2421ZM84.9124 93.9256H70.3226C71.0484 93.1946 71.6415 92.1589 72.1019 90.8191C72.6185 89.3151 73.0136 87.3505 73.2872 84.9257C73.5607 82.4701 73.7431 79.4774 73.8343 75.9475L73.971 70.6066H84.9124V93.9256ZM54.9865 93.9256L53.4191 89.8522H40.9277L39.3812 93.9256H54.9865ZM33.9949 93.9256L44.6243 66.5089H36.7125V33.8191H52.237V5.94202H27.4843C27.6877 6.1575 27.8853 6.3796 28.0769 6.60832C29.4446 8.20444 30.4932 9.98476 31.2226 11.9492C31.9824 13.9136 32.3623 15.9242 32.3623 17.9807C32.3623 20.16 31.9671 22.2472 31.177 24.2424C30.4171 26.2068 29.3382 27.9718 27.9402 29.5372C26.542 31.072 24.8857 32.2844 22.9709 33.1745C22.4418 33.4245 21.8995 33.6394 21.344 33.8191H27.3571V38.3773H16.598V66.5089H11.4464V38.3773H5.99751V79.723H22.0919V66.0485H27.2435V93.9256H33.9949ZM22.0919 93.9256V84.3271H5.99751V93.9256H22.0919ZM5.99751 33.8191H12.1939C11.6029 33.6284 11.0314 33.3982 10.4795 33.1285C8.77382 32.295 7.27986 31.1974 5.99751 29.8358V33.8191ZM5.99751 6.18954C6.07509 6.10603 6.1534 6.02352 6.23242 5.94202H5.99751V6.18954ZM57.343 5.94202V15.2642H73.6639V5.94202H57.343ZM124.003 14.4126V21.4646C123.934 21.7306 123.858 21.9966 123.774 22.2626C123.318 23.6745 122.649 24.9637 121.768 26.1301C120.917 27.2658 119.853 28.1713 118.576 28.8466C117.3 29.5218 115.841 29.8595 114.2 29.8595C112.62 29.8595 111.191 29.5372 109.915 28.8926C108.638 28.248 107.544 27.3732 106.632 26.2682C105.751 25.1326 105.067 23.8434 104.581 22.4007C104.095 20.958 103.851 19.4694 103.851 17.9346C103.851 16.4613 104.079 15.0186 104.535 13.6067C105.022 12.1948 105.706 10.9209 106.587 9.78522C107.468 8.64952 108.547 7.74402 109.823 7.06874C111.1 6.39346 112.559 6.05582 114.2 6.05582C115.75 6.05582 117.149 6.37811 118.394 7.0227C119.671 7.66728 120.765 8.55742 121.677 9.69313C122.588 10.7981 123.272 12.0719 123.728 13.5146C123.83 13.8112 123.922 14.1106 124.003 14.4126ZM124.003 30.786V33.8191H118.682C119.238 33.6394 119.78 33.4245 120.309 33.1745C121.671 32.5414 122.902 31.7452 124.003 30.786ZM124.003 38.3773H109.502V47.6777H123.954V51.9596H109.502V61.9508H124.003V38.3773ZM124.003 66.5089H118.576C119.189 66.7104 119.783 66.9559 120.356 67.2456C121.718 67.9221 122.933 68.7617 124.003 69.7641V66.5089ZM124.003 79.6395C123.887 79.0749 123.736 78.5196 123.548 77.9734C123.092 76.5307 122.408 75.2569 121.496 74.1519C120.584 73.0162 119.49 72.126 118.214 71.4814C116.967 70.8369 115.569 70.5146 114.019 70.5146C112.378 70.5146 110.919 70.8522 109.643 71.5275C108.366 72.2027 107.288 73.1083 106.406 74.244C105.524 75.3796 104.84 76.6535 104.354 78.0654C103.899 79.4774 103.671 80.92 103.671 82.3934C103.671 83.9282 103.914 85.4168 104.4 86.8595C104.886 88.3021 105.57 89.5913 106.452 90.727C107.363 91.832 108.458 92.7068 109.734 93.3514C110.197 93.5852 110.68 93.7766 111.183 93.9256H116.872C117.406 93.7669 117.914 93.5601 118.396 93.3053C119.672 92.6304 120.736 91.7245 121.587 90.5889C122.469 89.4224 123.137 88.1333 123.593 86.7213C123.76 86.1924 123.897 85.6636 124.003 85.1347V79.6395ZM7.24267 22.4007C6.75632 20.958 6.51324 19.4694 6.51324 17.9346C6.51324 16.4613 6.74119 15.0186 7.19708 13.6067C7.68333 12.1948 8.36717 10.9209 9.24859 9.78522C10.1299 8.64952 11.2089 7.74402 12.4854 7.06874C13.7619 6.39346 15.2208 6.05582 16.862 6.05582C18.412 6.05582 19.8101 6.37811 21.0562 7.0227C22.3327 7.66728 23.4268 8.55742 24.3386 9.69313C25.2504 10.7981 25.9342 12.0719 26.3901 13.5146C26.8764 14.9265 27.1196 16.3999 27.1196 17.9346C27.1196 19.3773 26.8916 20.8199 26.4357 22.2626C25.9798 23.6745 25.3111 24.9637 24.4298 26.1301C23.5787 27.2658 22.515 28.1713 21.2385 28.8466C19.962 29.5218 18.5032 29.8595 16.862 29.8595C15.2815 29.8595 13.8531 29.5372 12.5766 28.8926C11.3001 28.248 10.206 27.3732 9.29418 26.2682C8.41276 25.1326 7.72892 23.8434 7.24267 22.4007ZM83.466 61.9968H74.3481V51.5913H83.3748C84.9248 51.5913 86.1254 51.8369 86.9763 52.328C87.8576 52.7884 88.4657 53.4023 88.8004 54.1697C89.1341 54.937 89.3018 55.7658 89.3018 56.6559C89.3018 57.5461 89.104 58.4055 88.7092 59.2343C88.3445 60.0324 87.721 60.6922 86.8396 61.2141C85.9886 61.7359 84.8641 61.9968 83.466 61.9968ZM47.219 71.7117L52.4162 86.0307H41.8395L47.219 71.7117Z" fill="black"/>
</svg>
